# xmcd
#
# Track frame offsets:
#  150
#  17075
#  32461
#  48709
#  68716
#  86700
#  101473
#  114619
#  133656
#  143688
#  157152
#  177654
#  194107
#  209957
#  231920
#
# Disc length: 3270 seconds
#
# Revision: 0
# Processed by: cddbd v1.5.1PL2 Copyright (c) Steve Scherf et al.
# Submitted via: Collectorz.com_Music_Collector 6.11
#
DISCID=e60cc40f
DTITLE=Various Artist - Q - The Eighties
DYEAR=2006
DGENRE=
TTITLE0=Orson - I Can't Go For That (No Can Do)
TTITLE1=The Futureheads - Let's Dance
TTITLE2=Boy Kill Boy - It's Different For Girls
TTITLE3=Neal Casal - Wishing Well
TTITLE4=Lorraine - Heaven
TTITLE5=Cord - Spirits In The Material World
TTITLE6=The Boy Least Likely To - Faith
TTITLE7=Teddy Thompson - Don't Dream It's Over
TTITLE8=Catherine Feeny - I'm On Fire
TTITLE9=Kelley Stoltz - Heaven Up Here
TTITLE10=Camera Obscura - Modern Girl
TTITLE11=Clayhill - Please Please Please Let Me Get What I Want
TTITLE12=Katie Melua - Just Like Heaven
TTITLE13=Placebo - Running Up That Hill
TTITLE14=Elf Power - Upside Down
EXTD=
EXTT0=
EXTT1=
EXTT2=
EXTT3=
EXTT4=
EXTT5=
EXTT6=
EXTT7=
EXTT8=
EXTT9=
EXTT10=
EXTT11=
EXTT12=
EXTT13=
EXTT14=
PLAYORDER=
